# xmcd
#
# Track frame offsets: 
#        150
#        15737
#        27298
#        46592
#        61758
#        80509
#        93553
#        114439
#        135110
#        150378
#        168649
#
# Disc length: 2345 seconds
#
# Revision: 0
# Processed by: cddbd v1.5.2PL0 Copyright (c) Steve Scherf et al.
# Submitted via: ExactAudioCopy v1.3
#
DISCID=7609270b
DTITLE=Shelley King - Welcome Home
DYEAR=2009
DGENRE=Country, Americana
TTITLE0=Summer Wine
TTITLE1=I Remember
TTITLE2=Welcome Home
TTITLE3=Everything's All Right
TTITLE4=Asking Too Much
TTITLE5=How You Make Me Feel
TTITLE6=I Can't Make It Easy
TTITLE7=It's Starting To Rain
TTITLE8=Falling Fast
TTITLE9=Grain Of Sand
TTITLE10=Welcome Home Reprise
EXTD=
EXTT0=
EXTT1=
EXTT2=
EXTT3=
EXTT4=
EXTT5=
EXTT6=
EXTT7=
EXTT8=
EXTT9=
EXTT10=
PLAYORDER=
